# xmcd
#
# Track frame offsets: 
#        150
#        15627
#        32055
#        52060
#        72410
#        84082
#        101350
#        111930
#        127840
#        142592
#        152927
#        170332
#        185937
#        196892
#        207607
#        222825
#        235675
#
# Disc length: 3322 seconds
#
# Revision: 0
# Processed by: cddbd v1.5.2PL0 Copyright (c) Steve Scherf et al.
# Submitted via: ExactAudioCopy v1.0b2
#
DISCID=e90cf811
DTITLE=Various Artist - CBS Records Limited Edition Radio Sampler
DYEAR=1900
DGENRE=Country
TTITLE0=Shenandoah - Mama Knows
TTITLE1=Shenandoah - She Doesn't Cry Anymore
TTITLE2=Charlie Daniels Band - Uneasy Rider '88
TTITLE3=Charlie Daniels Band - Cowboy Hat In Dallas
TTITLE4=T.G. Sheppard - You Still Do
TTITLE5=T.G. Sheppard - She Didn't Break My Heart
TTITLE6=Linda Davis - All The Good Ones Are Taken
TTITLE7=Shooters - Borderline
TTITLE8=Lori Yates - Scene Of The Crime
TTITLE9=George Jones - One Woman Man
TTITLE10=David Allan Coe - Love Is A Never Ending War
TTITLE11=David Allan Coe - If Only Your Eyes Could Lie
TTITLE12=Jim Lauderdale - Stay Out Of My Arms
TTITLE13=Ricky Van Shelton - From A Jack To A King
TTITLE14=Ricky Van Shelton - Living Proof
TTITLE15=Vern Gosdin - Who You Gonna Blame It On This Time
TTITLE16=Vern Gosdin - Is It Raining At Your House
EXTD=
EXTT0=
EXTT1=
EXTT2=
EXTT3=
EXTT4=
EXTT5=
EXTT6=
EXTT7=
EXTT8=
EXTT9=
EXTT10=
EXTT11=
EXTT12=
EXTT13=
EXTT14=
EXTT15=
EXTT16=
PLAYORDER=
